<svg width="33" height="31" viewBox="0 0 33 31" fill="none" xmlns="http://www.w3.org/2000/svg">
<g clip-path="url(#clip0_68_160)">
<path fill-rule="evenodd" clip-rule="evenodd" d="M28.4287 14.3136C28.4287 7.30711 22.7477 1.62605 15.7412 1.62605C8.73477 1.62605 3.05371 7.30711 3.05371 14.3136C3.05371 20.646 7.69258 25.8949 13.7588 26.8476V17.9822H10.5365V14.3136H13.7588V11.5183C13.7588 8.3391 15.6534 6.58154 18.5512 6.58154C19.9394 6.58154 21.3917 6.82963 21.3917 6.82963V9.95222H19.791C18.2158 9.95222 17.7231 10.9298 17.7231 11.9346V14.3136H21.2416L20.6797 17.9822H17.7236V26.8487C23.7898 25.8966 28.4287 20.6477 28.4287 14.3136Z" fill="#005BAB"/>
</g>
<defs>
<clipPath id="clip0_68_160">
<rect width="32.1744" height="30.9418" fill="white"/>
</clipPath>
</defs>
</svg>
