<svg width="27" height="33" viewBox="0 0 27 33" fill="none" xmlns="http://www.w3.org/2000/svg">
<g clip-path="url(#clip0_68_162)">
<path d="M15 12.6933C14.346 12.6933 13.7067 12.8873 13.1629 13.2506C12.6191 13.6139 12.1953 14.1304 11.945 14.7346C11.6948 15.3388 11.6293 16.0037 11.7569 16.6451C11.8844 17.2865 12.1994 17.8757 12.6618 18.3382C13.1243 18.8006 13.7135 19.1155 14.3549 19.2431C14.9963 19.3707 15.6612 19.3052 16.2654 19.055C16.8696 18.8047 17.386 18.3809 17.7494 17.8371C18.1127 17.2933 18.3067 16.654 18.3067 16C18.3067 15.5658 18.2211 15.1358 18.055 14.7346C17.8888 14.3334 17.6452 13.9689 17.3382 13.6618C17.0311 13.3548 16.6666 13.1112 16.2654 12.945C15.8642 12.7789 15.4342 12.6933 15 12.6933ZM28.24 9.42666C28.233 8.39701 28.0434 7.37676 27.68 6.41333C27.4124 5.70834 26.9983 5.06812 26.4651 4.53491C25.9319 4.0017 25.2916 3.58762 24.5867 3.32C23.6232 2.95662 22.603 2.76701 21.5733 2.76C19.8533 2.66666 19.3467 2.66666 15 2.66666C10.6533 2.66666 10.1467 2.66666 8.42666 2.76C7.397 2.76701 6.37675 2.95662 5.41332 3.32C4.70834 3.58762 4.06811 4.0017 3.5349 4.53491C3.00169 5.06812 2.58761 5.70834 2.31999 6.41333C1.95661 7.37676 1.767 8.39701 1.75999 9.42666C1.66666 11.1467 1.66666 11.6533 1.66666 16C1.66666 20.3467 1.66666 20.8533 1.75999 22.5733C1.77434 23.6066 1.96369 24.63 2.31999 25.6C2.58643 26.3018 3.00016 26.9383 3.53332 27.4667C4.06425 28.0031 4.70584 28.4172 5.41332 28.68C6.37675 29.0434 7.397 29.233 8.42666 29.24C10.1467 29.3333 10.6533 29.3333 15 29.3333C19.3467 29.3333 19.8533 29.3333 21.5733 29.24C22.603 29.233 23.6232 29.0434 24.5867 28.68C25.2941 28.4172 25.9357 28.0031 26.4667 27.4667C26.9998 26.9383 27.4136 26.3018 27.68 25.6C28.043 24.6318 28.2326 23.6073 28.24 22.5733C28.3333 20.8533 28.3333 20.3467 28.3333 16C28.3333 11.6533 28.3333 11.1467 28.24 9.42666ZM24.8533 20.0933C24.8105 20.9161 24.6349 21.7266 24.3333 22.4933C24.0745 23.1329 23.6897 23.7139 23.2018 24.2018C22.7139 24.6897 22.1329 25.0745 21.4933 25.3333C20.7193 25.6181 19.9043 25.7757 19.08 25.8C18.0267 25.8 17.7467 25.8 15 25.8C12.2533 25.8 11.9733 25.8 10.92 25.8C10.0956 25.7757 9.28064 25.6181 8.50666 25.3333C7.84546 25.0876 7.24836 24.6956 6.75999 24.1867C6.27688 23.7083 5.90378 23.1305 5.66666 22.4933C5.38073 21.7202 5.22747 20.9042 5.21332 20.08C5.21332 19.0267 5.21332 18.7467 5.21332 16C5.21332 13.2533 5.21332 12.9733 5.21332 11.92C5.22747 11.0958 5.38073 10.2798 5.66666 9.50666C5.91236 8.84547 6.30436 8.24837 6.81332 7.76C7.29377 7.2795 7.87101 6.90679 8.50666 6.66666C9.28064 6.38187 10.0956 6.22428 10.92 6.2C11.9733 6.2 12.2533 6.2 15 6.2C17.7467 6.2 18.0267 6.2 19.08 6.2C19.9043 6.22428 20.7193 6.38187 21.4933 6.66666C22.1545 6.91237 22.7516 7.30436 23.24 7.81333C23.7231 8.29166 24.0962 8.86951 24.3333 9.50666C24.6181 10.2806 24.7757 11.0956 24.8 11.92C24.8 12.9733 24.8 13.2533 24.8 16C24.8 18.7467 24.8933 19.0267 24.8533 20.08V20.0933ZM22.72 10.1733C22.5612 9.74264 22.3109 9.35152 21.9864 9.02695C21.6618 8.70238 21.2707 8.45208 20.84 8.29333C20.2486 8.08834 19.6258 7.98905 19 8C17.96 8 17.6667 8 15 8C12.3333 8 12.04 8 11 8C10.371 8.00615 9.74808 8.12351 9.15999 8.34666C8.73589 8.49821 8.34891 8.73828 8.02477 9.05093C7.70062 9.36358 7.44674 9.74165 7.27999 10.16C7.08636 10.7538 6.99176 11.3755 6.99999 12C6.99999 13.04 6.99999 13.3333 6.99999 16C6.99999 18.6667 6.99999 18.96 6.99999 20C7.01321 20.6283 7.13035 21.25 7.34666 21.84C7.50541 22.2707 7.7557 22.6618 8.08027 22.9864C8.40485 23.3109 8.79597 23.5612 9.22666 23.72C9.79554 23.9292 10.3942 24.0462 11 24.0667C12.04 24.0667 12.3333 24.0667 15 24.0667C17.6667 24.0667 17.96 24.0667 19 24.0667C19.629 24.0605 20.2519 23.9432 20.84 23.72C21.2707 23.5612 21.6618 23.3109 21.9864 22.9864C22.3109 22.6618 22.5612 22.2707 22.72 21.84C22.9431 21.2519 23.0605 20.629 23.0667 20C23.0667 18.96 23.0667 18.6667 23.0667 16C23.0667 13.3333 23.0667 13.04 23.0667 12C23.067 11.3704 22.9495 10.7463 22.72 10.16V10.1733ZM15 21.0933C14.3318 21.0933 13.6701 20.9615 13.0529 20.7054C12.4357 20.4492 11.8751 20.0739 11.4032 19.6007C10.9313 19.1276 10.5574 18.566 10.3028 17.9481C10.0483 17.3302 9.91823 16.6682 9.91999 16C9.91999 14.9921 10.2191 14.0068 10.7793 13.1689C11.3396 12.331 12.1358 11.6782 13.0673 11.2931C13.9987 10.908 15.0235 10.8079 16.0119 11.0055C17.0003 11.2031 17.9078 11.6896 18.6196 12.4032C19.3314 13.1169 19.8154 14.0256 20.0104 15.0145C20.2054 16.0034 20.1027 17.0279 19.7151 17.9584C19.3276 18.8888 18.6727 19.6834 17.8333 20.2414C16.994 20.7995 16.0079 21.096 15 21.0933ZM20.3333 11.9067C20.0386 11.8755 19.7658 11.7363 19.5676 11.516C19.3693 11.2956 19.2596 11.0097 19.2596 10.7133C19.2596 10.4169 19.3693 10.131 19.5676 9.9107C19.7658 9.69037 20.0386 9.5512 20.3333 9.52C20.6281 9.5512 20.9008 9.69037 21.0991 9.9107C21.2973 10.131 21.407 10.4169 21.407 10.7133C21.407 11.0097 21.2973 11.2956 21.0991 11.516C20.9008 11.7363 20.6281 11.8755 20.3333 11.9067Z" fill="#005BAB"/>
</g>
<defs>
<clipPath id="clip0_68_162">
<rect width="26.0459" height="32.2048" fill="white" transform="translate(0.053894 0.631439)"/>
</clipPath>
</defs>
</svg>
