<svg width="28" height="34" viewBox="0 0 28 34" fill="none" xmlns="http://www.w3.org/2000/svg">
<g clip-path="url(#clip0_68_166)">
<path d="M15.0029 2.875C7.75488 2.875 1.87793 8.75195 1.87793 16C1.87793 21.373 5.1123 25.9902 9.73535 28.0234C9.70019 27.1094 9.72949 26.0078 9.96387 25.0117C10.2158 23.9453 11.6514 17.8574 11.6514 17.8574C11.6514 17.8574 11.2295 17.0195 11.2295 15.7832C11.2295 13.8379 12.3545 12.3848 13.7607 12.3848C14.9561 12.3848 15.5303 13.2812 15.5303 14.3535C15.5303 15.5547 14.7627 17.3477 14.3701 19.0117C14.042 20.4062 15.0674 21.5371 16.4443 21.5371C18.9287 21.5371 20.6045 18.3438 20.6045 14.5586C20.6045 11.6816 18.665 9.53125 15.1436 9.53125C11.165 9.53125 8.68066 12.502 8.68066 15.8184C8.68066 16.9609 9.02051 17.7695 9.54785 18.3906C9.78809 18.6777 9.82324 18.7949 9.73535 19.123C9.6709 19.3633 9.53027 19.9434 9.46582 20.1777C9.37793 20.5117 9.1084 20.6289 8.80957 20.5059C6.97559 19.7559 6.12012 17.752 6.12012 15.4902C6.12012 11.7637 9.2666 7.29297 15.501 7.29297C20.5107 7.29297 23.8096 10.9199 23.8096 14.8105C23.8096 19.9609 20.9443 23.8047 16.7256 23.8047C15.3076 23.8047 13.9775 23.0371 13.5205 22.1699C13.5205 22.1699 12.7588 25.1934 12.5947 25.7793C12.3193 26.793 11.7744 27.8008 11.2764 28.5918C12.4845 28.9482 13.7375 29.1297 14.9971 29.1309C22.2451 29.1309 28.1221 23.2539 28.1221 16.0059C28.1221 8.75781 22.251 2.875 15.0029 2.875Z" fill="#005BAB"/>
</g>
<defs>
<clipPath id="clip0_68_166">
<rect width="27.0673" height="33.4677" fill="white" transform="translate(0.22052)"/>
</clipPath>
</defs>
</svg>
