<svg width="27" height="34" viewBox="0 0 27 34" fill="none" xmlns="http://www.w3.org/2000/svg">
<g clip-path="url(#clip0_68_171)">
<path d="M13 26C15.6522 26 18.1957 24.9464 20.0711 23.0711C21.9464 21.1957 23 18.6522 23 16C23 13.3478 21.9464 10.8043 20.0711 8.92893C18.1957 7.05357 15.6522 6 13 6C10.3478 6 7.8043 7.05357 5.92893 8.92893C4.05357 10.8043 3 13.3478 3 16C3 18.6522 4.05357 21.1957 5.92893 23.0711C7.8043 24.9464 10.3478 26 13 26ZM13 28.5C6.09625 28.5 0.5 22.9037 0.5 16C0.5 9.09625 6.09625 3.5 13 3.5C19.9037 3.5 25.5 9.09625 25.5 16C25.5 22.9037 19.9037 28.5 13 28.5Z" fill="#005BAB"/>
<path d="M16.6538 11.6575H9.34625C7.9125 11.6575 6.75 12.8075 6.75 14.225V17.8375C6.75 19.2563 7.9125 20.405 9.34625 20.405H16.6538C18.0875 20.405 19.25 19.255 19.25 17.8375V14.225C19.25 12.8063 18.0875 11.6575 16.6538 11.6575ZM14.8988 16.2075L11.48 17.82C11.4591 17.8299 11.436 17.8343 11.4129 17.8329C11.3898 17.8315 11.3675 17.8243 11.3479 17.812C11.3283 17.7997 11.3122 17.7826 11.301 17.7623C11.2898 17.7421 11.2838 17.7194 11.2837 17.6963V14.3713C11.284 14.3478 11.2902 14.3248 11.3017 14.3045C11.3133 14.2841 11.3299 14.267 11.35 14.2549C11.37 14.2427 11.3928 14.2359 11.4162 14.2351C11.4396 14.2342 11.4629 14.2394 11.4837 14.25L14.9012 15.9625C14.9237 15.9742 14.9425 15.992 14.9555 16.0137C14.9686 16.0355 14.9753 16.0604 14.9751 16.0858C14.9748 16.1111 14.9675 16.1359 14.9541 16.1574C14.9406 16.1789 14.9215 16.1962 14.8988 16.2075Z" fill="#005BAB"/>
</g>
<defs>
<clipPath id="clip0_68_171">
<rect width="26.5566" height="32.8362" fill="white" transform="translate(0.408691 0.315704)"/>
</clipPath>
</defs>
</svg>
